<svg width="227" height="227" viewBox="0 0 227 227" fill="none" xmlns="http://www.w3.org/2000/svg">
<path d="M113.173 218.345C171.258 218.345 218.345 171.258 218.345 113.173C218.345 55.0874 171.258 8 113.173 8C55.0874 8 8 55.0874 8 113.173C8 171.258 55.0874 218.345 113.173 218.345Z" fill="#8AD8F6" stroke="black" stroke-width="16"/>
<path d="M134.155 125.286V101.059L113.173 88.9448L92.1912 101.059V125.286L113.173 137.4L134.155 125.286Z" fill="#E3EDF6"/>
<path d="M134.155 125.286V101.059M134.155 125.286L113.173 137.4M134.155 125.286L154.159 136.835M134.155 101.059L113.173 88.9448M134.155 101.059L154.159 89.5098M113.173 88.9448L92.1911 101.059M113.173 88.9448V65.8459M92.1911 101.059V125.286M92.1911 101.059L72.1873 89.5098M92.1911 125.286L113.173 137.4M92.1911 125.286L72.1873 136.835M113.173 137.4V160.499M134.155 44.8645L113.173 65.8459M113.173 65.8459L92.1911 44.8645M64.5067 60.8477L72.1873 89.5098M72.1873 89.5098L43.5253 97.1893M43.5253 129.156L72.1873 136.835M72.1873 136.835L64.5067 165.497M92.1911 181.481L113.173 160.499M113.173 160.499L134.155 181.481M161.838 165.497L154.159 136.835M154.159 136.835L182.821 129.156M182.821 97.1893L154.159 89.5098M154.159 89.5098L161.838 60.8477" stroke="black" stroke-width="15.0246" stroke-miterlimit="10"/>
</svg>
