<svg xmlns="http://www.w3.org/2000/svg" version="1.1" xmlns:xlink="http://www.w3.org/1999/xlink" xmlns:svgjs="http://svgjs.com/svgjs" width="512" height="512" x="0" y="0" viewBox="0 0 64 64" style="enable-background:new 0 0 512 512" xml:space="preserve" class=""><g><g data-name="Layer 32"><path fill="#649e55" d="M20 28.064V32L9.59 35.47A11.1 11.1 0 0 0 2 46v16h44V46a11.1 11.1 0 0 0-7.59-10.53L28 32v-3.936z" data-original="#649e55" class=""></path><path fill="#6fae67" d="M38.411 35.47 28 32v-3.936h-8V32L9.589 35.47a11.084 11.084 0 0 0-3.262 1.743A11.078 11.078 0 0 0 4 44a16 16 0 0 0 16 16h26V46a11.1 11.1 0 0 0-7.589-10.53z" data-original="#6fae67" class=""></path><path fill="#768891" d="M10 62V35.333l6-2V49h16V33.334l6 2V62z" data-original="#768891" class=""></path><path fill="#285298" d="M10 49h28v13H10z" data-original="#285298"></path><path fill="#3665a6" d="M10 56.479A15.921 15.921 0 0 0 20 60h18V49H10z" data-original="#3665a6" class=""></path><path fill="#cca69f" d="M15.055 21H14a3 3 0 0 1-3-3 3 3 0 0 1 3-3h20a3 3 0 0 1 3 3 3 3 0 0 1-3 3h-1.055" data-original="#cca69f" class=""></path><circle cx="47" cy="47" r="15" fill="#6bbae9" data-original="#6bbae9"></circle><path fill="#7bd2fc" d="M47 32a14.982 14.982 0 0 0-11.083 25.083 14.982 14.982 0 0 0 21.166-21.166A14.926 14.926 0 0 0 47 32z" data-original="#7bd2fc" class=""></path><path fill="#e2b9af" d="M33 14v6a9 9 0 0 1-9 9 9 9 0 0 1-9-9v-6" data-original="#e2b9af" class=""></path><path fill="#e2b9af" d="m28 32-.891 1.336A3.736 3.736 0 0 1 24 35a3.736 3.736 0 0 1-3.109-1.664L20 32v-5h8z" data-original="#e2b9af" class=""></path><path fill="#f6e1d7" d="M20 29.232V32l.891 1.336a3.736 3.736 0 0 0 6.218 0L28 32v-2.768A9.978 9.978 0 0 1 24 30a9.978 9.978 0 0 1-4-.768z" data-original="#f6e1d7" class=""></path><path fill="#0e2759" d="M17.999 62 18 55h12l-.001 7" data-original="#0e2759"></path><path fill="#3665a6" d="M62 12H40V5a3 3 0 0 1 3-3h16a3 3 0 0 1 3 3z" data-original="#3665a6" class=""></path><path fill="#4d81bd" d="M62 5a3 3 0 0 0-3-3H43a2.983 2.983 0 0 0-.86.14A2.983 2.983 0 0 0 42 3a7 7 0 0 0 7 7h13z" data-original="#4d81bd" class=""></path><path fill="#889ea6" d="M40 8h22v4H40z" data-original="#889ea6" class=""></path><g fill="#6bbae9"><path d="M50 16h2v5h-2zM43 16h2v5h-2zM57 16h2v5h-2z" fill="#6bbae9" data-original="#6bbae9"></path></g><path fill="#99b1b8" d="M49 10h13V8H44.106A6.972 6.972 0 0 0 49 10z" data-original="#99b1b8"></path><path fill="#f6e1d7" d="M15 20a9 9 0 0 0 18 0v-4H15z" data-original="#f6e1d7" class=""></path><path fill="#285298" d="M14 15v-3A10 10 0 0 1 24 2a10 10 0 0 1 10 10v3" data-original="#285298"></path><path fill="#3665a6" d="M25 2.05A10 10 0 0 0 16 12v3h18v-3a10 10 0 0 0-9-9.95z" data-original="#3665a6" class=""></path><path fill="#163771" d="M15 15a4 4 0 0 1 4-4h10a4 4 0 0 1 4 4" data-original="#163771" class=""></path><path fill="#224884" d="M18 59.861A16.08 16.08 0 0 0 20 60h10v-5H18z" data-original="#224884" class=""></path><path d="M47 31a15.892 15.892 0 0 0-9.46 3.126L29 31.279v-2.632A10.024 10.024 0 0 0 33.8 22h.2a3.992 3.992 0 0 0 1-7.858V12a11 11 0 0 0-22 0v2.142A3.992 3.992 0 0 0 14 22h.2a10.024 10.024 0 0 0 4.8 6.647v2.632l-9.727 3.243A12.084 12.084 0 0 0 1 46v16a1 1 0 0 0 1 1h36a1 1 0 0 0 1-1v-1.165A15.992 15.992 0 1 0 47 31zm-11.249 4.637A16.116 16.116 0 0 0 33 39.271V34.72zM36 18a2 2 0 0 1-2 2v-4a2 2 0 0 1 2 2zM24 3a9.01 9.01 0 0 1 9 9v.031A4.982 4.982 0 0 0 29 10H19a4.982 4.982 0 0 0-4 2.031V12a9.01 9.01 0 0 1 9-9zm7.816 11H16.184A3 3 0 0 1 19 12h10a3 3 0 0 1 2.816 2zM12 18a2 2 0 0 1 2-2v4a2 2 0 0 1-2-2zm4 2v-4h16v4a8 8 0 0 1-16 0zm8 10a9.986 9.986 0 0 0 3-.461V31.7l-.723 1.084a2.736 2.736 0 0 1-4.554 0L21 31.7v-2.161A9.986 9.986 0 0 0 24 30zm-4.409 3.19.468.7a4.737 4.737 0 0 0 7.882 0l.468-.7 2.591.864V47c0 .338.03.668.051 1H17V34.054zM11 36.054l4-1.333V48h-4zM3 46a10.083 10.083 0 0 1 6-9.225V61H3zm26 15H19v-5h10zm8 0h-6v-6a1 1 0 0 0-1-1H18a1 1 0 0 0-1 1v6h-6V50h20.292A16 16 0 0 0 37 59.47zm10 0a14.015 14.015 0 0 1-14-14v-.019A14 14 0 1 1 47 61z" fill="#000000" data-original="#000000" class=""></path><path d="M59 1H43a4 4 0 0 0-4 4v7a1 1 0 0 0 1 1h22a1 1 0 0 0 1-1V5a4 4 0 0 0-4-4zM43 3h16a2 2 0 0 1 2 2v2H41V5a2 2 0 0 1 2-2zm-2 8V9h20v2zM50 16h2v5h-2zM43 16h2v5h-2zM57 16h2v5h-2zM56.167 43.444l-1.705 2.555h-5.049l3.001-3.001H55v-2h-2v-2h-2v2.586l-3 3v-5.051l2.554-1.703-1.11-1.664-1.444.963v-2.131h-2v2.131l-1.446-.963-1.11 1.664L46 39.532v5.052l-3-3v-2.586h-2v2h-2v2h2.586l3.001 3.001h-5.052l-1.703-2.554-1.664 1.11.963 1.444H35v2h2.131l-.963 1.446 1.664 1.11 1.702-2.556h5.051l-2.999 2.999H39v2h2v2h2v-2.586l3-3v5.052l-2.555 1.703 1.11 1.664L46 56.867V59h2v-2.133l1.445.964 1.11-1.664L48 54.462v-5.05l3 3v2.586h2v-2h2v-2h-2.586l-2.999-2.999h5.049l1.703 2.555 1.664-1.11-.964-1.445H59v-2h-2.133l.964-1.445z" fill="#000000" data-original="#000000" class=""></path></g></g></svg><svg width="240" height="320" viewBox="0 0 240 320" fill="none" xmlns="http://www.w3.org/2000/svg">
<path d="M228 319.5H12C5.64873 319.5 0.5 314.351 0.5 308V12C0.5 5.64873 5.64873 0.5 12 0.5H159.175C159.571 0.5 159.952 0.656748 160.233 0.936021L239.057 79.2681C239.341 79.5497 239.5 79.9326 239.5 80.3321V308C239.5 314.351 234.351 319.5 228 319.5Z" fill="#FFF9F2" stroke="#FFC681"/>
<path d="M160.5 1.20711L238.793 79.5H172C165.649 79.5 160.5 74.3513 160.5 68V1.20711Z" fill="#FFF9F2" stroke="#FFC681"/>
<path d="M68.8438 244.072C69.1738 250.699 74.7344 254.914 83.1387 254.914C92.0254 254.914 97.5352 250.496 97.5352 243.387C97.5352 237.826 94.4121 234.729 86.9727 233.027L82.7578 232.062C78.2129 230.996 76.3594 229.549 76.3594 227.035C76.3594 223.861 79.1523 221.779 83.3672 221.779C87.3789 221.779 90.2227 223.836 90.6797 227.111H96.9512C96.6465 220.84 91.0859 216.447 83.3926 216.447C75.1914 216.447 69.7578 220.865 69.7578 227.467C69.7578 232.9 72.8809 236.176 79.5332 237.699L84.2812 238.791C88.9785 239.883 90.9844 241.508 90.9844 244.174C90.9844 247.297 87.8613 249.557 83.5449 249.557C78.8984 249.557 75.6484 247.424 75.2422 244.072H68.8438Z" fill="#FF8C02"/>
<path d="M121.59 254L134.26 217.361H127.278L118.137 246.51H117.705L108.489 217.361H101.252L114.049 254H121.59Z" fill="#FF8C02"/>
<path d="M170.731 239.375V234.805H155.522V239.807H164.333L164.307 240.568C164.206 245.748 160.397 249.227 154.811 249.227C148.286 249.227 144.198 244.047 144.198 235.617C144.198 227.314 148.21 222.135 154.608 222.135C159.305 222.135 162.581 224.471 163.901 228.711H170.426C169.258 221.246 163.063 216.447 154.608 216.447C144.173 216.447 137.495 223.938 137.495 235.668C137.495 247.525 144.096 254.914 154.71 254.914C164.485 254.914 170.731 248.846 170.731 239.375Z" fill="#FF8C02"/>
<path fill-rule="evenodd" clip-rule="evenodd" d="M99 117C96.7909 117 95 118.791 95 121V148.939C94.3386 148.979 93.6717 149 93 149C75.3269 149 61 134.673 61 117C61 99.3269 75.3269 85 93 85C110.673 85 125 99.3269 125 117H99ZM125 117H155C157.209 117 159 118.791 159 121V177C159 179.209 157.209 181 155 181H99C96.7909 181 95 179.209 95 177V148.939C111.741 147.906 125 134.001 125 117Z" fill="#FFC681"/>
</svg>
