<svg xmlns="http://www.w3.org/2000/svg" version="1.1" xmlns:xlink="http://www.w3.org/1999/xlink" xmlns:svgjs="http://svgjs.com/svgjs" width="512" height="512" x="0" y="0" viewBox="0 0 24 24" style="enable-background:new 0 0 512 512" xml:space="preserve" class=""><g><g data-name="Layer 2"><path d="M20.387 1H7.613A2.616 2.616 0 0 0 5 3.613V5H3.613A2.616 2.616 0 0 0 1 7.613v12.774A2.616 2.616 0 0 0 3.613 23h12.774A2.616 2.616 0 0 0 19 20.387V19h1.387A2.616 2.616 0 0 0 23 16.387V3.613A2.616 2.616 0 0 0 20.387 1ZM17 20.387a.614.614 0 0 1-.613.613H3.613A.614.614 0 0 1 3 20.387V7.613A.614.614 0 0 1 3.613 7h12.774a.614.614 0 0 1 .613.613Zm4-4a.614.614 0 0 1-.613.613H19V7.613A2.616 2.616 0 0 0 16.387 5H7V3.613A.614.614 0 0 1 7.613 3h12.774a.614.614 0 0 1 .613.613Z" fill="#ffffff" data-original="#000000" class="" opacity="1"></path><path d="M14 13h-3v-3a1 1 0 0 0-2 0v3H6a1 1 0 0 0 0 2h3v3a1 1 0 0 0 2 0v-3h3a1 1 0 0 0 0-2Z" fill="#ffffff" data-original="#000000" class="" opacity="1"></path></g></g></svg>